<?xml version="1.0" standalone="no"?>
<!DOCTYPE svg PUBLIC "-//W3C//DTD SVG 20010904//EN"
 "http://www.w3.org/TR/2001/REC-SVG-20010904/DTD/svg10.dtd">
<svg version="1.0" xmlns="http://www.w3.org/2000/svg"
 width="450.000000pt" height="450.000000pt" viewBox="0 0 450.000000 450.000000"
 preserveAspectRatio="xMidYMid meet">
<metadata>
Created by potrace 1.14, written by Peter Selinger 2001-2017
</metadata>
<g transform="translate(0.000000,450.000000) scale(0.100000,-0.100000)"
fill="#000000" stroke="none">
<path d="M854 3366 c-3 -8 -4 -25 -2 -37 2 -17 11 -24 36 -27 19 -2 43 3 55
11 44 28 115 39 215 35 86 -3 107 -8 164 -36 41 -20 69 -41 76 -57 6 -14 18
-25 25 -25 15 0 67 -51 67 -66 0 -5 -7 0 -15 10 -8 11 -15 15 -15 9 0 -14 25
-35 33 -27 3 3 22 -19 42 -50 20 -32 47 -62 60 -68 14 -6 22 -15 19 -19 -3 -5
1 -6 9 -3 17 6 49 -34 40 -49 -3 -6 -1 -7 5 -3 17 11 60 -73 83 -163 14 -55
19 -104 17 -146 -2 -38 0 -61 6 -58 5 4 6 -1 2 -12 -7 -18 -6 -18 14 0 19 17
20 29 20 334 l0 316 122 -7 c202 -10 324 -40 378 -91 14 -12 27 -22 30 -22 3
0 4 -3 3 -7 -2 -5 1 -7 6 -5 16 4 72 -44 65 -56 -4 -7 -4 -9 1 -5 17 16 110
-118 159 -229 70 -159 104 -329 115 -580 21 -455 -56 -802 -223 -1004 -81 -99
-161 -150 -281 -181 -28 -7 -62 -25 -76 -40 -93 -94 -310 -126 -442 -65 -65
30 -142 99 -192 172 -21 30 -42 55 -47 55 -22 0 -118 110 -147 167 -33 66 -61
166 -61 221 0 17 -4 32 -10 32 -6 0 -10 -81 -10 -222 0 -123 -5 -241 -10 -263
-6 -27 -23 -53 -53 -81 -50 -48 -105 -64 -218 -64 l-70 0 3 -35 3 -36 674 1
c706 0 736 2 921 47 474 117 759 398 876 866 31 125 44 380 25 520 -64 479
-339 830 -761 971 -227 76 -356 86 -1123 86 -517 0 -608 -2 -613 -14z"/>
<path d="M1030 3284 c-98 -38 -140 -82 -140 -145 0 -70 112 -212 176 -225 42
-8 80 26 96 88 11 43 10 50 -8 75 -25 33 -64 47 -109 39 -39 -8 -53 -36 -33
-65 10 -13 19 -16 34 -10 30 11 37 25 24 49 -12 22 -1 27 18 8 7 -7 12 -8 12
-3 0 4 9 0 20 -10 27 -24 26 -74 -3 -116 -29 -43 -49 -47 -97 -15 -51 34 -95
121 -86 171 9 44 57 100 110 127 44 22 174 39 162 20 -4 -6 1 -8 13 -5 10 3
40 -5 67 -16 26 -12 49 -19 52 -16 3 3 -17 15 -44 27 -38 17 -72 23 -149 25
-55 1 -107 0 -115 -3z"/>
<path d="M1180 3172 c72 -19 136 -53 133 -71 -2 -6 2 -10 9 -8 29 6 98 -166
98 -245 0 -22 5 -38 11 -38 14 0 6 134 -11 192 -33 113 -131 188 -244 187
l-61 0 65 -17z"/>
<path d="M1400 3168 c0 -3 7 -19 16 -36 8 -18 12 -37 8 -43 -4 -7 -3 -9 4 -5
13 8 36 -59 26 -75 -5 -8 -3 -9 6 -4 10 6 12 3 8 -13 -4 -12 -3 -20 2 -17 16
10 33 -117 37 -282 7 -244 -14 -393 -106 -733 -64 -235 -78 -425 -42 -562 11
-42 27 -90 35 -106 17 -32 46 -60 46 -44 0 6 -4 13 -9 16 -5 4 -15 38 -22 77
-23 130 9 315 109 629 145 454 130 844 -42 1109 -37 58 -76 103 -76 89z"/>
<path d="M1110 3141 c0 -6 11 -13 25 -17 14 -3 22 -11 18 -17 -3 -6 -1 -7 6
-3 14 9 43 -12 35 -25 -3 -5 0 -8 6 -7 6 2 25 -16 42 -39 27 -37 32 -53 36
-124 3 -59 2 -80 -7 -75 -7 4 -9 2 -5 -8 9 -22 -11 -74 -51 -135 -44 -67 -44
-75 0 -68 l35 6 -6 -53 c-9 -72 13 -187 46 -251 16 -30 25 -57 22 -61 -4 -4
-2 -4 5 0 6 3 16 -1 21 -11 8 -13 12 -4 22 42 13 64 8 130 -16 197 l-15 43 24
-25 c14 -14 23 -28 20 -32 -2 -4 2 -5 10 -2 8 3 19 -2 26 -10 16 -19 -9 -151
-45 -242 -57 -143 -171 -185 -248 -93 -49 58 -56 128 -19 185 16 25 17 25 24
6 13 -34 43 -45 70 -24 17 14 20 25 15 45 -13 52 -75 43 -122 -18 -62 -82 -31
-211 63 -256 118 -57 225 32 273 228 24 96 40 247 39 350 -1 69 -2 74 -10 38
-5 -22 -11 -80 -15 -129 -4 -56 -9 -85 -15 -79 -21 21 -39 124 -43 243 -7 186
-28 258 -102 339 -43 49 -164 108 -164 82z"/>
<path d="M1567 2977 c-4 -10 -2 -16 5 -14 28 5 69 -123 82 -253 6 -57 -5 -215
-14 -201 -11 18 -2 -198 10 -249 7 -28 22 -58 37 -71 l26 -24 -18 35 c-23 44
-23 155 -1 290 20 118 20 185 1 274 -17 83 -44 140 -88 191 -28 32 -35 36 -40
22z"/>
<path d="M1095 2887 c-21 -18 -30 -34 -30 -60 -1 -20 2 -34 6 -32 8 6 21 -24
14 -34 -2 -4 2 -8 10 -8 8 0 11 5 8 10 -4 6 0 8 10 4 30 -11 67 13 67 43 0 31
-23 56 -41 44 -9 -5 -6 -10 9 -15 26 -10 28 -22 6 -44 -14 -14 -19 -14 -38 -2
-46 31 -28 77 32 84 33 4 42 1 56 -18 18 -27 21 -71 6 -100 -8 -13 -7 -19 0
-19 14 0 30 43 30 80 0 40 -37 79 -81 86 -28 5 -41 1 -64 -19z"/>
<path d="M1776 2465 c12 -130 -34 -339 -115 -530 -24 -54 -56 -118 -71 -140
-85 -124 -103 -337 -38 -473 12 -26 22 -53 21 -59 0 -7 3 -11 7 -8 4 2 19 -9
35 -25 15 -16 40 -34 56 -41 23 -9 27 -15 18 -25 -8 -10 -6 -11 14 -1 l24 11
-40 30 c-164 126 -140 535 39 671 l35 27 20 -26 c24 -30 59 -34 82 -8 21 23
21 27 1 46 -18 19 -95 22 -126 5 -11 -6 -22 -8 -25 -5 -3 2 4 33 16 68 11 35
28 95 37 133 20 87 30 326 15 375 -9 31 -10 29 -5 -25z"/>
<path d="M1608 2083 c-15 -17 -77 -196 -134 -388 -23 -78 -26 -106 -25 -210 2
-154 4 -194 12 -189 4 2 10 -11 13 -29 3 -18 15 -51 26 -72 23 -46 24 -48 8
-39 -8 4 -10 3 -5 -2 5 -5 12 -9 16 -9 5 0 21 -16 37 -35 16 -19 40 -44 54
-55 14 -11 33 -28 42 -37 10 -10 21 -19 26 -20 4 -2 6 -5 5 -8 -2 -8 73 -14
157 -14 95 0 164 23 214 71 45 44 56 69 56 125 0 113 -130 237 -248 238 -102
0 -171 -87 -135 -171 8 -19 14 -36 14 -39 -1 -3 2 -5 7 -5 4 -1 17 -4 29 -9
42 -14 88 32 47 48 -9 3 -29 6 -45 6 -34 0 -36 10 -9 69 14 31 24 41 36 37 8
-3 12 -2 9 4 -10 17 45 23 92 9 53 -14 140 -90 127 -110 -4 -7 -3 -10 3 -6 28
17 30 -94 3 -138 -63 -101 -307 -99 -437 3 -114 91 -164 277 -129 482 13 76
110 423 122 439 2 2 10 -1 17 -7 10 -9 19 -8 35 4 24 17 29 43 10 62 -17 17
-32 15 -50 -5z"/>
<path d="M1250 2012 c-47 -47 -57 -83 -66 -242 -6 -113 -6 -124 9 -112 24 20
46 74 49 120 3 36 6 41 22 36 16 -5 18 -3 11 12 -50 119 -41 168 40 212 19 11
19 11 -4 12 -14 0 -38 -15 -61 -38z"/>
<path d="M1327 1963 c-2 -4 -10 -31 -17 -60 -8 -29 -17 -50 -20 -48 -4 2 -6
-78 -5 -178 2 -195 8 -227 60 -323 27 -51 26 -44 -8 71 -18 59 -21 97 -21 245
0 97 5 201 12 234 11 55 11 79 -1 59z"/>
<path d="M1759 1761 c-47 -15 -69 -32 -98 -72 -26 -35 -29 -47 -28 -114 0 -41
4 -72 8 -69 4 2 10 -4 14 -15 3 -10 14 -26 25 -36 10 -9 16 -24 13 -33 -4 -15
-3 -15 6 -2 8 12 13 12 23 2 28 -28 25 -9 -5 34 -28 40 -32 54 -32 109 0 73
16 102 83 149 31 22 53 29 87 29 47 0 98 -20 89 -35 -3 -5 0 -7 7 -6 7 2 13
-6 14 -17 0 -11 6 -19 13 -17 16 3 16 -71 1 -101 -34 -66 -93 -91 -147 -63
-16 8 -33 23 -36 33 -7 17 -6 17 10 2 15 -16 18 -16 35 -1 21 18 25 62 7 80
-22 22 -57 14 -73 -18 -18 -35 -18 -41 -3 -77 6 -15 11 -31 10 -35 -1 -5 1 -7
6 -6 4 1 21 -6 39 -15 44 -23 84 -21 124 6 101 67 85 218 -28 272 -43 21 -125
29 -164 16z"/>
</g>
</svg>
